<svg xmlns="http://www.w3.org/2000/svg" width="50" height="70" viewBox="0 0 50 70">
  <g id="Group_16" data-name="Group 16" transform="translate(-853 -850)">
    <path id="Path_291" data-name="Path 291" d="M582.749,218.25h-2.083V209.5c0-9.652-7.474-17.5-16.667-17.5s-16.667,7.848-16.667,17.5v8.75h-2.084a6.42,6.42,0,0,0-6.25,6.563v30.625a6.419,6.419,0,0,0,6.25,6.562h37.5a6.419,6.419,0,0,0,6.25-6.562V224.813A6.42,6.42,0,0,0,582.749,218.25ZM551.5,209.5c0-7.237,5.608-13.125,12.5-13.125s12.5,5.888,12.5,13.125v8.75h-25Zm33.333,45.938a2.14,2.14,0,0,1-2.084,2.187h-37.5a2.14,2.14,0,0,1-2.083-2.187V224.813a2.14,2.14,0,0,1,2.083-2.188h37.5a2.14,2.14,0,0,1,2.084,2.188Z" transform="translate(314 658)" fill="#040404"/>
    <path id="Path_292" data-name="Path 292" d="M656.5,400a5.418,5.418,0,0,0-2.062,10.46v6.5a2.062,2.062,0,0,0,4.125,0v-6.5A5.418,5.418,0,0,0,656.5,400Zm0,4.071a1.357,1.357,0,1,1-1.375,1.357A1.369,1.369,0,0,1,656.5,404.071Z" transform="translate(221.347 488.365)" fill="#040404"/>
  </g>
</svg>
