<svg xmlns="http://www.w3.org/2000/svg" viewBox="0 0 154.51 142.43"><defs><style>.cls-1{fill:#c4d4ff;}.cls-2{fill:#4b5ea2;}.cls-3{fill:#1a2752;}</style></defs><g id="Layer_2" data-name="Layer 2"><g id="Layer_2-2" data-name="Layer 2"><path class="cls-1" d="M80.72,81.32c-10.36,7.76-29.37,21.46-49.33,32.47-4.12,2.28-16.4,9-25.14,5a10.65,10.65,0,0,1-4.77-4c-2.39-3.93-1.88-10,1.51-12.63,2.39-1.86,5.81-1.65,5.9-1.31s-2,.47-3.53,2.12c-2.18,2.38-2.54,7.1-.26,9.62a6.83,6.83,0,0,0,4.32,1.94c7.67,1,14.7-2.72,15.53-3.18C33.06,107,53.38,94.81,80,77.53Z"/><path class="cls-1" d="M84.45,85c-8.34,6.4-23.24,18.28-36.25,31.48-2.68,2.73-10.63,10.87-9.45,18.59a8.65,8.65,0,0,0,2.06,4.6c2.55,2.74,7.43,3.67,10.22,1.59,2-1.47,2.57-4.19,2.32-4.33s-.8,1.47-2.43,2.29c-2.34,1.19-6.12.44-7.59-1.9a5.56,5.56,0,0,1-.57-3.81c.87-6.23,5.35-10.91,5.9-11.46,5.27-5.37,19.23-18.61,38.6-35.67Z"/><path class="cls-2" d="M37.69,42.47,35.92,0l75.65,48.59L131,30.24l23.53,16.11-15.65,4.94q-3.06,14.53-6.11,29.06L104,100,93.33,131.76,70.86,114.47,88.75,94.59Z"/><path class="cls-3" d="M87.52,25.76,103,6.24,128.27.76q-1.62,14-3.26,28.06L112,42.68Z"/></g></g></svg>